<svg xmlns="http://www.w3.org/2000/svg" width="15.198" height="15" viewBox="0 0 15.198 15">
  <path id="bx-cctv" d="M17.425,9.012a.761.761,0,0,0-.391-1L7.063,3.619a1.556,1.556,0,0,0-2.017.795L3.36,8.344a1.526,1.526,0,0,0,.8,2l4.605,1.974-.946,2.364h-3.3V12.4H3v6.1H4.525V16.208h3.3a1.516,1.516,0,0,0,1.415-.959l.932-2.329,3.97,1.7a.763.763,0,0,0,1-.395l.238-.541,1.3.519L18.2,10.39l-1.171-.467.4-.911Zm-3.381,3.909L4.764,8.944,6.448,5.015,15.723,9.1l-1.678,3.823Z" transform="translate(-3 -3.496)" fill="#fff"/>
</svg>
