<svg xmlns="http://www.w3.org/2000/svg" width="15" height="15" viewBox="0 0 15 15">
  <path id="Union_6" data-name="Union 6" d="M7.5,15V13.929h6.429V5.893H1.071V7.5H0V1.071A1.072,1.072,0,0,1,1.071,0H13.929A1.072,1.072,0,0,1,15,1.071V13.929A1.073,1.073,0,0,1,13.929,15ZM6.429,4.821h7.5V1.071h-7.5Zm-5.357,0H5.357V1.071H1.071ZM0,14.242l3.528-3.528H1.071V9.643H5.357v4.286H4.286V11.472L.758,15Zm11.786-1.385V10.179h1.071v2.679Zm-2.143,0V7.5h1.071v5.357Zm-2.143,0V8.571H8.571v4.286Z" fill="#fff"/>
</svg>
