<svg xmlns="http://www.w3.org/2000/svg" width="12" height="14" viewBox="0 0 12 14">
  <path id="delete" d="M11.281,2.626H.781a.681.681,0,0,1-.527-.253.9.9,0,0,1-.223-.615.94.94,0,0,1,.217-.622A.668.668,0,0,1,.781.876h3.75A.929.929,0,0,1,4.748.261.669.669,0,0,1,5.281,0h1.5a.669.669,0,0,1,.533.26.929.929,0,0,1,.217.615h3.75a.674.674,0,0,1,.527.26.924.924,0,0,1,.223.622.9.9,0,0,1-.223.615.683.683,0,0,1-.527.253Zm0,9.625a1.838,1.838,0,0,1-.439,1.238A1.349,1.349,0,0,1,9.78,14h-7.5a1.351,1.351,0,0,1-1.061-.513A1.835,1.835,0,0,1,.78,12.251V3.5h10.5v8.75Zm-7.5-6.125a.915.915,0,0,0-.223-.615.68.68,0,0,0-.533-.26.663.663,0,0,0-.527.26.931.931,0,0,0-.217.615v5.25A.923.923,0,0,0,2.5,12a.67.67,0,0,0,.527.253A.687.687,0,0,0,3.558,12a.906.906,0,0,0,.223-.622V6.126Zm3,0a.915.915,0,0,0-.223-.615.68.68,0,0,0-.533-.26.663.663,0,0,0-.527.26.931.931,0,0,0-.217.615v5.25A.923.923,0,0,0,5.5,12a.67.67,0,0,0,.527.253A.687.687,0,0,0,6.558,12a.906.906,0,0,0,.223-.622V6.126Zm3,0a.915.915,0,0,0-.223-.615.68.68,0,0,0-.533-.26.663.663,0,0,0-.527.26.931.931,0,0,0-.217.615v5.25A.923.923,0,0,0,8.5,12a.67.67,0,0,0,.527.253A.687.687,0,0,0,9.558,12a.906.906,0,0,0,.223-.622V6.126Z" transform="translate(-0.031 -0.001)" fill="#ababab"/>
</svg>
