<svg xmlns="http://www.w3.org/2000/svg" width="2.708" height="13" viewBox="0 0 2.708 13">
  <path id="dotlist" d="M1.369,11a1.305,1.305,0,0,1-.958-.4,1.354,1.354,0,0,1,0-1.915,1.3,1.3,0,0,1,.958-.4,1.306,1.306,0,0,1,.958.4,1.354,1.354,0,0,1,0,1.915,1.307,1.307,0,0,1-.958.4Zm0-5.146a1.305,1.305,0,0,1-.958-.4,1.354,1.354,0,0,1,0-1.915,1.3,1.3,0,0,1,.958-.4,1.306,1.306,0,0,1,.958.4,1.354,1.354,0,0,1,0,1.915,1.307,1.307,0,0,1-.958.4Zm0-5.146a1.305,1.305,0,0,1-.958-.4,1.3,1.3,0,0,1-.4-.957,1.308,1.308,0,0,1,.4-.958A1.3,1.3,0,0,1,1.369-2a1.307,1.307,0,0,1,.958.4,1.305,1.305,0,0,1,.4.958,1.3,1.3,0,0,1-.4.958,1.309,1.309,0,0,1-.958.4Z" transform="translate(-0.015 2)" fill="#ababab"/>
</svg>
