<svg xmlns="http://www.w3.org/2000/svg" width="15.035" height="15" viewBox="0 0 15.035 15">
  <path id="info-outline" d="M6.761,11.518V7.011H8.275v4.507ZM7.518.25a7.244,7.244,0,0,1,5.317,2.2,7.224,7.224,0,0,1,2.2,5.3,7.224,7.224,0,0,1-2.2,5.3,7.244,7.244,0,0,1-5.317,2.2,7.244,7.244,0,0,1-5.317-2.2A7.225,7.225,0,0,1,0,7.75a7.222,7.222,0,0,1,2.2-5.3A7.245,7.245,0,0,1,7.518.25Zm0,13.521a5.783,5.783,0,0,0,4.243-1.761,5.8,5.8,0,0,0,1.761-4.26,5.8,5.8,0,0,0-1.761-4.26A5.783,5.783,0,0,0,7.518,1.729,5.783,5.783,0,0,0,3.275,3.49,5.8,5.8,0,0,0,1.514,7.75a5.8,5.8,0,0,0,1.761,4.26A5.783,5.783,0,0,0,7.518,13.771ZM6.761,5.5V3.983H8.275V5.5Z" transform="translate(0 -0.25)"/>
</svg>
