<svg id="Logo" xmlns="http://www.w3.org/2000/svg" width="203.043" height="25" viewBox="0 0 203.043 25">
  <g id="_2062002286768">
    <path id="Path_1" data-name="Path 1" d="M5732.688,38.624c-1.566.825-3.069,1.625-4.587,2.426-.931-1.411-2.425-1.65-3.918-1.889a11.132,11.132,0,0,0-5.643.528,2.981,2.981,0,0,0-.99.635.668.668,0,0,0,.058,1.172,4.9,4.9,0,0,0,1.509.792c1.345.33,2.715.594,4.083.817a29.084,29.084,0,0,1,5.752,1.254,7.614,7.614,0,0,1,4.439,3.96,6.4,6.4,0,0,1-1.98,7.747,10.156,10.156,0,0,1-5.173,2.079,19.8,19.8,0,0,1-9.183-.784,9.167,9.167,0,0,1-4.29-2.822,5.458,5.458,0,0,1-1.206-3.243c-.008-.091,0-.182,0-.314h.593c1.428,0,2.849.008,4.266-.008a.4.4,0,0,1,.461.322,2.335,2.335,0,0,0,1.263,1.229,9.1,9.1,0,0,0,3.012.875,11.544,11.544,0,0,0,5.652-.553,5.327,5.327,0,0,0,1.386-.767A1.274,1.274,0,0,0,5728.3,50a4.022,4.022,0,0,0-2.187-1.139c-1.526-.281-3.07-.512-4.6-.751a18.972,18.972,0,0,1-5.907-1.741,6.281,6.281,0,0,1-3.415-3.927,5.5,5.5,0,0,1,1.477-5.437,8.978,8.978,0,0,1,4.33-2.442,16,16,0,0,1,11.313.85,7.084,7.084,0,0,1,3.062,2.64C5732.476,38.228,5732.565,38.4,5732.688,38.624Z" transform="translate(-5664.431 -33.632)" fill="#fff"/>
    <path id="Path_2" data-name="Path 2" d="M1019.995,52.973c.38-.949.734-1.832,1.081-2.715q3.119-7.958,6.238-15.924a.528.528,0,0,1,.594-.4c1.526.017,3.061.008,4.587.008h.462c-.066.173-.1.3-.148.421q-4.654,11.794-9.29,23.6c-.116.289-.231.421-.578.413-2-.016-3.985-.016-5.982,0a.475.475,0,0,1-.536-.355q-4.629-11.832-9.274-23.655c-.041-.124-.082-.248-.149-.421h1.757c1.089,0,2.187.008,3.276-.008a.494.494,0,0,1,.561.371q3.589,9.084,7.187,18.143C1019.846,52.6,1019.9,52.759,1019.995,52.973Z" transform="translate(-998.691 -33.658)" fill="#fff"/>
    <path id="Path_3" data-name="Path 3" d="M5.025,62.373H0V38H5.025Z" transform="translate(0 -37.686)" fill="#fff"/>
    <path id="Path_4" data-name="Path 4" d="M4592.024,62.373H4587V38h5.024Z" transform="translate(-4549.153 -37.686)" fill="#fff"/>
    <path id="Path_5" data-name="Path 5" d="M17773.814,799.268a4.072,4.072,0,0,0-.711-8.053c-1.576-.041-3.176-.033-4.729-.025-.588,0-1.162.008-1.754.008a1.361,1.361,0,0,0-.414.033l-.211.049V803.1h2.186V799.35h.8c.646,0,1.281.008,1.926,0a.3.3,0,0,1,.285.132c.295.347.594.685.887,1.023.527.619,1.086,1.254,1.594,1.9a1.688,1.688,0,0,0,1.367.742,1.577,1.577,0,0,0,.262-.025,5.886,5.886,0,0,1,.773-.008c.135,0,.283.008.43.008h.6Zm.623-2.855a1.763,1.763,0,0,1-1.346.742c-1.184.041-2.41.033-3.58.025-.436-.008-.873-.008-1.311-.008V793.41h.008l1.146-.008c1.148,0,2.3,0,3.443.008a1.9,1.9,0,0,1,1.943,1.361A1.927,1.927,0,0,1,17774.438,796.413Z" transform="translate(-17619.412 -784.656)" fill="#fff"/>
    <path id="Path_6" data-name="Path 6" d="M12479.1,801.818v-2.805h6.445v-2.1h-6.445V794.1h7.516V792H12477v11.922h9.622v-2.1Z" transform="translate(-12374.058 -785.465)" fill="#fff"/>
    <path id="Path_7" data-name="Path 7" d="M10682.681,796.4a4.568,4.568,0,0,0-2.1-.957c-.693-.124-1.4-.248-2.1-.363-.488-.082-.964-.165-1.445-.247a2.737,2.737,0,0,1-1.436-.627.75.75,0,0,1-.251-.528.6.6,0,0,1,.236-.437,2.281,2.281,0,0,1,.833-.462,6.1,6.1,0,0,1,3.516-.058,2.114,2.114,0,0,1,1.4.883l.14.231,1.823-1.04-.134-.239a3.476,3.476,0,0,0-1.624-1.452,7.755,7.755,0,0,0-3.027-.685,6.951,6.951,0,0,0-3.952.99,2.716,2.716,0,0,0-1.38,2.178,2.844,2.844,0,0,0,1.907,2.814,11.181,11.181,0,0,0,1.833.545c.579.124,1.172.223,1.738.314.4.058.784.124,1.172.2a2.932,2.932,0,0,1,1.512.652.893.893,0,0,1-.027,1.5,1.523,1.523,0,0,1-.288.19,4.179,4.179,0,0,1-1.74.462,6.714,6.714,0,0,1-3.348-.511c-.474-.215-.8-.454-.876-.9l-.032-.231H10673v.28a2.58,2.58,0,0,0,.617,1.692,3.943,3.943,0,0,0,1.543,1.089,8.338,8.338,0,0,0,3.418.668,13.19,13.19,0,0,0,1.367-.074,5.011,5.011,0,0,0,2.666-1,3.038,3.038,0,0,0,.068-4.876Z" transform="translate(-10584.94 -783.892)" fill="#fff"/>
    <path id="Path_8" data-name="Path 8" d="M14057.5,798.151a.634.634,0,0,0-.629.371,4.173,4.173,0,1,1-3.9-6.056,4.121,4.121,0,0,1,3.912,2.236.707.707,0,0,0,.492.363c.348.016.7.016,1.074.016h.8l-.131-.371a6.115,6.115,0,0,0-2.193-2.954,6.377,6.377,0,0,0-4.457-1.081,5.752,5.752,0,0,0-5.174,3.836,5.645,5.645,0,0,0,1.279,6.246,5.869,5.869,0,0,0,4.535,1.832c.193,0,.381-.008.58-.025a5.988,5.988,0,0,0,4.223-1.98,5.333,5.333,0,0,0,1.2-2.071l.117-.363-.795.008C14058.107,798.16,14057.8,798.16,14057.5,798.151Z" transform="translate(-13930.954 -784.117)" fill="#fff"/>
    <path id="Path_9" data-name="Path 9" d="M15977.734,792h-2.113v6.427a3.173,3.173,0,0,1-1.516,2.871,3.247,3.247,0,0,1-4.994-2.681c-.014-1.395-.01-2.789-.01-4.191V792h-2.1v5.907c0,.4,0,.8.035,1.2a5.39,5.39,0,0,0,5.256,4.818c.1,0,.205,0,.307-.008a5.379,5.379,0,0,0,5.137-5.47c.01-1.345.01-2.7,0-4.043Z" transform="translate(-15835.259 -785.465)" fill="#fff"/>
    <path id="Path_10" data-name="Path 10" d="M20295,793v2.1h4.457v9.827h2.115V795.1h4.463V793Z" transform="translate(-20127.549 -786.457)" fill="#fff"/>
    <path id="Path_11" data-name="Path 11" d="M21945.328,789.008c-.4,0-.762,0-1.133-.008a.781.781,0,0,0-.68.338c-.863,1.155-1.727,2.3-2.578,3.457l-.746.99h-.008l-.742-.982c-.867-1.155-1.727-2.31-2.605-3.457a.744.744,0,0,0-.5-.33c-.441-.016-.879-.008-1.336-.008h-1l.352.52a.433.433,0,0,0,.082.124l1,1.353q1.8,2.376,3.578,4.769a.535.535,0,0,1,.105.272q.006,1.671,0,3.342v1.543h2.117v-1.592c0-1.089,0-2.187.012-3.284a.505.505,0,0,1,.07-.248c1.152-1.559,2.32-3.1,3.484-4.653l1.078-1.444a1.577,1.577,0,0,0,.117-.173l.332-.528Z" transform="translate(-21753.027 -782.49)" fill="#fff"/>
    <path id="Path_12" data-name="Path 12" d="M19578,803.914h2.066V792H19578Z" transform="translate(-19416.463 -785.465)" fill="#fff"/>
    <path id="Path_13" data-name="Path 13" d="M17322,1.6h58.521v8.87h1.6V0H17322Z" transform="translate(-17179.08)" fill="#fff"/>
    <path id="Path_14" data-name="Path 14" d="M9494.59,10.47V1.6h58.533V0H9493V10.47Z" transform="translate(-9414.675)" fill="#fff"/>
    <path id="Path_15" data-name="Path 15" d="M17380.521,1811v8.458H17322v1.6h60.123V1811Z" transform="translate(-17179.08 -1796.058)" fill="#fff"/>
    <path id="Path_16" data-name="Path 16" d="M9553.123,1819.457H9494.59V1811H9493v10.058h60.121Z" transform="translate(-9414.675 -1796.058)" fill="#fff"/>
  </g>
</svg>
