<svg version="1.2" xmlns="http://www.w3.org/2000/svg" viewBox="0 0 40 40" width="40" height="40"><style>.a{fill:#fff}.b{fill:none;stroke:#efefef}.c{fill:#ababab}</style><path class="a" d="m-50 20c0-11 9-20 20-20 11 0 20 9 20 20 0 11-9 20-20 20-11 0-20-9-20-20z"/><path class="b" d="m-49.5 20c0-10.8 8.7-19.5 19.5-19.5 10.8 0 19.5 8.7 19.5 19.5 0 10.8-8.7 19.5-19.5 19.5-10.8 0-19.5-8.7-19.5-19.5z"/><path fill-rule="evenodd" class="c" d="m-28.7 21.3v5.9q0 0.3-0.2 0.6-0.3 0.2-0.6 0.2-0.3 0-0.6-0.2-0.2-0.3-0.2-0.6v-5.9h-5.9q-0.3 0-0.6-0.2-0.2-0.3-0.2-0.6 0-0.3 0.2-0.6 0.3-0.2 0.6-0.2h5.9v-5.9q0-0.3 0.2-0.6 0.3-0.2 0.6-0.2 0.3 0 0.6 0.2 0.2 0.3 0.2 0.6v5.9h5.9q0.3 0 0.6 0.2 0.2 0.3 0.2 0.6 0 0.3-0.2 0.6-0.3 0.2-0.6 0.2z"/><path class="a" d="m0 20c0-11 9-20 20-20 11 0 20 9 20 20 0 11-9 20-20 20-11 0-20-9-20-20z"/><path class="b" d="m0.5 20c0-10.8 8.7-19.5 19.5-19.5 10.8 0 19.5 8.7 19.5 19.5 0 10.8-8.7 19.5-19.5 19.5-10.8 0-19.5-8.7-19.5-19.5z"/><path class="c" d="m27.5 22.3h-2.8q-0.1 0-0.2 0 0-0.1-0.1-0.1-0.1-0.1-0.1-0.2 0-0.1 0-0.2v-0.9q0-0.1 0-0.2 0-0.1 0.1-0.1 0.1-0.1 0.1-0.1 0.1-0.1 0.2-0.1h2.8q0.1 0 0.2 0.1 0.1 0 0.2 0.1 0 0 0.1 0.1 0 0.1 0 0.2v0.9q0 0.1 0 0.2-0.1 0.1-0.1 0.2-0.1 0-0.2 0.1-0.1 0-0.2 0zm-2.3-9.4q0-0.1 0-0.1 0-0.1 0.1-0.2 0-0.1 0-0.2 0.1-0.1 0.2-0.1 0.1-0.2 0.3-0.2 0.1-0.1 0.3-0.1 0.2 0 0.4 0.1 0.2 0 0.3 0.2 0.1 0 0.1 0.1 0.1 0.1 0.1 0.2 0 0.1 0 0.2 0.1 0 0.1 0.1v6.6h-1.9zm-3.3 4.7h-2.8q-0.1 0-0.2-0.1-0.1 0-0.1-0.1-0.1 0-0.1-0.1-0.1-0.1-0.1-0.2v-0.9q0-0.1 0.1-0.2 0-0.1 0.1-0.1 0-0.1 0.1-0.2 0.1 0 0.2 0h2.8q0.1 0 0.2 0 0.1 0.1 0.1 0.2 0.1 0 0.1 0.1 0.1 0.1 0.1 0.2v0.9q0 0.1-0.1 0.2 0 0.1-0.1 0.1 0 0.1-0.1 0.2-0.1 0-0.2 0zm-2.3-4.7q0-0.1 0-0.2 0-0.1 0-0.2 0.1 0 0.1-0.1 0.1-0.1 0.1-0.2 0.2-0.1 0.3-0.2 0.2 0 0.4 0 0.2 0 0.4 0 0.1 0.1 0.3 0.2 0 0.1 0.1 0.2 0 0.1 0.1 0.1 0 0.1 0 0.2 0 0.1 0 0.2v1.9h-1.8zm-3.3 11.2h-2.8q-0.1 0-0.1 0-0.1 0-0.1 0-0.1 0-0.1-0.1 0 0-0.1 0 0 0 0-0.1 0 0-0.1-0.1 0 0 0-0.1v-1q0 0 0-0.1 0 0 0-0.1 0.1 0 0.1 0 0-0.1 0-0.1 0.1 0 0.1-0.1 0 0 0.1 0 0 0 0.1 0 0-0.1 0.1 0h2.8q0.1 0 0.2 0 0 0 0.1 0.1 0.1 0.1 0.1 0.1 0 0.1 0.1 0.2v1q-0.1 0-0.1 0.1 0 0.1-0.1 0.2-0.1 0.1-0.1 0.1-0.1 0-0.2 0zm-2.4-11.2q0-0.1 0.1-0.2 0-0.1 0-0.2 0-0.1 0.1-0.1 0-0.1 0.1-0.2 0.1-0.1 0.1-0.1 0.1-0.1 0.2-0.1 0.1 0 0.2 0 0.1-0.1 0.2-0.1 0.1 0 0.2 0.1 0 0 0.1 0 0.1 0 0.2 0.1 0.1 0 0.1 0.1 0.1 0.1 0.2 0.2 0 0 0 0.1 0.1 0.1 0.1 0.2 0 0.1 0 0.2v8.4h-1.9zm1.9 13.1q0 0.1 0 0.2 0 0.1-0.1 0.2 0 0.1 0 0.2-0.1 0-0.2 0.1 0 0.1-0.1 0.1-0.1 0.1-0.2 0.1-0.1 0-0.1 0.1-0.1 0-0.2 0-0.1 0-0.2 0-0.1-0.1-0.2-0.1-0.1 0-0.2-0.1 0 0-0.1-0.1-0.1-0.1-0.1-0.1-0.1-0.1-0.1-0.2 0-0.1-0.1-0.2 0-0.1 0-0.2v-0.9h1.9zm5.6 0q0 0.4-0.2 0.7-0.3 0.2-0.7 0.2-0.4 0-0.7-0.2-0.2-0.3-0.2-0.7v-7.5h1.8zm5.7 0q0 0.2-0.1 0.4-0.1 0.1-0.2 0.3-0.2 0.1-0.3 0.2-0.2 0-0.4 0-0.1 0-0.2 0-0.1 0-0.1 0-0.1-0.1-0.2-0.1-0.1-0.1-0.1-0.1-0.1-0.1-0.2-0.2 0-0.1 0-0.1-0.1-0.1-0.1-0.2 0-0.1 0-0.2v-2.8h1.9z"/></svg>