<svg xmlns="http://www.w3.org/2000/svg" width="14.5" height="15" viewBox="0 0 14.5 15">
  <path id="Union_26" data-name="Union 26" d="M9.5,15V14h4V3.5h-4v-1h4a1,1,0,0,1,1,1V15ZM0,15V1.06A1.06,1.06,0,0,1,1.06,0H7.94A1.06,1.06,0,0,1,9,1.06V15Zm6.5-2.5V14H8V1.06A.06.06,0,0,0,7.94,1H1.06A.06.06,0,0,0,1,1.06V14H2.5V12.5Zm5-1.5V10h1v1Zm-2,0V10h1v1ZM6,11V10H7v1ZM4,11V10H5v1ZM2,11V10H3v1Zm9.5-2.5v-1h1v1Zm-2,0v-1h1v1ZM6,8.5v-1H7v1Zm-2,0v-1H5v1Zm-2,0v-1H3v1ZM11.5,6V5h1V6Zm-2,0V5h1V6ZM6,6V5H7V6ZM4,6V5H5V6ZM2,6V5H3V6ZM6,3.5v-1H7v1Zm-2,0v-1H5v1Zm-2,0v-1H3v1Z" fill="#0a0a0a"/>
</svg>
