<svg xmlns="http://www.w3.org/2000/svg" width="16.321" height="15.5" viewBox="0 0 16.321 15.5">
  <path id="Union_29" data-name="Union 29" d="M4.1,15a.7.7,0,0,1-.695-.7V12.475A.7.7,0,0,1,3.594,12a5.954,5.954,0,0,1,8.659,0,.7.7,0,0,1,.183.477V14.3a.7.7,0,0,1-.694.7Zm0-2.529V14.3h7.641V12.471a5.262,5.262,0,0,0-7.641,0ZM14.183,11.19a6.653,6.653,0,0,0,.741-2.2c.258-.608-.331-1.714.49-1.929a.431.431,0,0,1,.39.286,7.077,7.077,0,0,1-.621,3.739.652.652,0,0,1-.634.618C14.321,11.709,14.132,11.554,14.183,11.19Zm-13.126.45A6.17,6.17,0,0,1,.17,9.314c-.012-.6-.529-1.728.3-1.919a.435.435,0,0,1,.392.343A7.844,7.844,0,0,0,1.2,9.91c.131.539.936,1.742.035,1.742A1.353,1.353,0,0,1,1.057,11.639ZM5.49,7A2.431,2.431,0,1,1,7.921,9.435,2.432,2.432,0,0,1,5.49,7Zm.695,0A1.737,1.737,0,1,0,7.921,5.26,1.737,1.737,0,0,0,6.185,7ZM1.264,3.594A5.181,5.181,0,0,1,3.249,1.584c.986.319-.036.968-.365,1.316A16.811,16.811,0,0,0,1.267,5.184a1.074,1.074,0,0,1-.208.023C.269,5.207.909,3.968,1.264,3.594ZM14.306,4.819a9.4,9.4,0,0,0-1.344-1.912c-.386-.413-1.669-1.189-.585-1.532h0l.1.019a7.2,7.2,0,0,1,2.235,2.422c.422.314.373,1.13-.066,1.13A.613.613,0,0,1,14.306,4.819ZM5.564.684C5.914-.141,7.212.116,7.991,0c.142,0,.284.006.426.014C9.006-.02,10.531.2,9.685.993a15.784,15.784,0,0,0-2.1-.129,1.922,1.922,0,0,0-.832.1,2.744,2.744,0,0,1-.637.114A.533.533,0,0,1,5.564.684Z" transform="translate(0.224 0.25)" stroke="#000" stroke-width="0.5"/>
</svg>
